<?xml version="1.0" encoding="UTF-8" standalone="no"?>
<!-- Created with Inkscape (http://www.inkscape.org/) -->

<svg
   xmlns:dc="http://purl.org/dc/elements/1.1/"
   xmlns:cc="http://creativecommons.org/ns#"
   xmlns:rdf="http://www.w3.org/1999/02/22-rdf-syntax-ns#"
   xmlns:svg="http://www.w3.org/2000/svg"
   xmlns="http://www.w3.org/2000/svg"
   xmlns:sodipodi="http://sodipodi.sourceforge.net/DTD/sodipodi-0.dtd"
   xmlns:inkscape="http://www.inkscape.org/namespaces/inkscape"
   width="210mm"
   height="297mm"
   viewBox="0 0 744.09448819 1052.3622047"
   id="svg6105"
   version="1.1"
   inkscape:version="0.91 r13725"
   sodipodi:docname="logo.svg">
  <defs
     id="defs6107" />
  <sodipodi:namedview
     id="base"
     pagecolor="#ffffff"
     bordercolor="#666666"
     borderopacity="1.0"
     inkscape:pageopacity="0.0"
     inkscape:pageshadow="2"
     inkscape:zoom="1.1598509"
     inkscape:cx="365.42099"
     inkscape:cy="521.39056"
     inkscape:document-units="px"
     inkscape:current-layer="layer1"
     showgrid="false"
     inkscape:window-width="1920"
     inkscape:window-height="1018"
     inkscape:window-x="-8"
     inkscape:window-y="-8"
     inkscape:window-maximized="1" />
  <metadata
     id="metadata6110">
    <rdf:RDF>
      <cc:Work
         rdf:about="">
        <dc:format>image/svg+xml</dc:format>
        <dc:type
           rdf:resource="http://purl.org/dc/dcmitype/StillImage" />
        <dc:title></dc:title>
      </cc:Work>
    </rdf:RDF>
  </metadata>
  <g
     inkscape:label="Calque 1"
     inkscape:groupmode="layer"
     id="layer1">
    <flowRoot
       xml:space="preserve"
       id="flowRoot6965"
       style="font-style:normal;font-weight:normal;font-size:40px;line-height:125%;font-family:Sans;letter-spacing:0px;word-spacing:0px;fill:#000000;fill-opacity:1;stroke:none;stroke-width:1px;stroke-linecap:butt;stroke-linejoin:miter;stroke-opacity:1"><flowRegion
         id="flowRegion6967"><rect
           id="rect6969"
           width="163.38307"
           height="50.868607"
           x="277.1908"
           y="546.69379" /></flowRegion><flowPara
         id="flowPara6971">Bouchon Lyonnai</flowPara></flowRoot>    <g
       id="g6987"
       transform="translate(12.070517,-50.868607)">
      <g
         style="fill:#be1e30;fill-opacity:1;fill-rule:nonzero"
         id="g2296"
         transform="matrix(1.25,0,0,-1.25,360.00125,480.30105)">
        <path
           d="m 0,0 c -5.766,0 -11.135,-0.887 -15.123,-2.497 l -61.015,-24.638 c -7.904,-3.192 -14.584,-13.091 -14.584,-21.616 l 0,-40.647 c 0,-8.527 6.68,-18.429 14.584,-21.622 l 61.015,-24.636 c 3.988,-1.61 9.357,-2.496 15.123,-2.496 5.764,0 11.137,0.886 15.122,2.496 l 61.013,24.636 c 7.907,3.193 14.584,13.095 14.584,21.622 l 0,40.647 c 0,8.525 -6.677,18.424 -14.584,21.616 L 15.122,-2.497 C 11.137,-0.887 5.764,0 0,0 m 0,-142.449 c -6.304,0 -12.246,1 -16.731,2.808 l -61.014,24.639 c -9.522,3.849 -17.271,15.329 -17.271,25.604 l 0,40.647 c 0,10.27 7.749,21.753 17.271,25.598 L -16.731,1.485 C -12.246,3.296 -6.304,4.294 0,4.294 c 6.303,0 12.246,-0.998 16.731,-2.809 l 61.011,-24.638 c 9.525,-3.845 17.272,-15.328 17.272,-25.598 l 0,-40.647 c 0,-10.275 -7.747,-21.755 -17.272,-25.604 L 16.731,-139.641 C 12.246,-141.449 6.303,-142.449 0,-142.449"
           style="fill:#be1e30;fill-opacity:1;fill-rule:nonzero;stroke:none"
           id="path2298"
           inkscape:connector-curvature="0" />
      </g>
      <g
         id="g2300"
         transform="matrix(1.25,0,0,-1.25,327.43035,620.6868)">
        <path
           d="m 0,0 c -0.08,-0.927 -0.119,-1.388 -0.198,-2.305 -0.319,0.08 -0.478,0.119 -0.795,0.201 0.003,0.228 0.003,0.342 0.006,0.57 0.002,0.159 -0.041,0.736 -0.181,0.932 -0.125,0.176 -0.535,0.267 -0.92,0.323 -0.674,0.098 -1.115,-0.186 -1.118,-0.785 -0.008,-1.493 3.475,-2.138 3.434,-4.745 -0.028,-1.73 -0.949,-2.086 -2.409,-1.49 -1.326,0.541 -2.197,1.482 -2.197,1.482 0.059,0.734 0.087,1.106 0.147,1.85 0.311,-0.12 0.466,-0.18 0.779,-0.299 -10e-4,-0.22 -0.003,-0.331 -0.004,-0.551 -10e-4,-0.146 0.058,-0.655 0.2,-0.932 0.179,-0.347 0.693,-0.623 1.122,-0.785 0.753,-0.284 1.232,-0.088 1.242,0.756 0.022,1.671 -3.403,2.433 -3.402,4.7 10e-4,1.177 0.948,1.74 2.23,1.589 C -1.402,0.433 -0.66,0.24 0,0"
           style="fill:#424036;fill-opacity:1;fill-rule:nonzero;stroke:none"
           id="path2302"
           inkscape:connector-curvature="0" />
      </g>
      <g
         id="g2304"
         transform="matrix(1.25,0,0,-1.25,332.42185,617.3848)">
        <path
           d="m 0,0 c -0.014,-0.689 -0.313,-1.146 -0.842,-1.116 -0.528,0.03 -0.811,0.501 -0.799,1.162 0.013,0.663 0.312,1.134 0.842,1.134 C -0.283,1.18 0.015,0.745 0,0 m 0.571,-12.224 c 0,0 -0.675,0.286 -1.77,0.639 -0.275,0.088 -1.517,0.423 -1.517,0.423 -0.021,0.349 -0.032,0.525 -0.054,0.874 0.416,-0.026 0.624,-0.039 1.043,-0.053 0,0 0.154,0.943 0.161,1.294 0.028,1.516 0.042,2.273 0.07,3.788 0.007,0.352 -0.108,1.351 -0.108,1.351 -0.419,0.167 -0.629,0.251 -1.047,0.414 0.034,0.357 0.05,0.536 0.085,0.894 0,0 0.997,-0.172 1.273,-0.2 0.322,-0.033 0.482,-0.05 0.805,-0.081 0.102,-0.14 0.153,-0.208 0.256,-0.349 0,0 -0.135,-1.851 -0.153,-2.752 -0.022,-1.126 -0.034,-1.688 -0.056,-2.814 -0.018,-0.902 0.058,-1.936 0.058,-1.936 0.428,-0.172 0.643,-0.258 1.072,-0.427 -0.047,-0.427 -0.07,-0.64 -0.118,-1.065"
           style="fill:#424036;fill-opacity:1;fill-rule:nonzero;stroke:none"
           id="path2306"
           inkscape:connector-curvature="0" />
      </g>
      <g
         id="g2308"
         transform="matrix(1.25,0,0,-1.25,334.43475,621.13293)">
        <path
           d="m 0,0 c 0,0 1,-0.162 1.278,-0.185 0.201,-0.017 0.301,-0.024 0.502,-0.04 0.103,-0.149 0.153,-0.224 0.255,-0.374 0.024,-0.504 0.038,-0.758 0.062,-1.264 0.352,0.866 1.097,1.706 2.158,1.635 1.928,-0.128 2.326,-2.012 2.273,-4.905 -0.016,-0.915 -0.025,-1.374 -0.042,-2.289 -0.018,-1.049 0.06,-2.241 0.06,-2.241 0.438,-0.133 0.655,-0.199 1.095,-0.328 -0.048,-0.495 -0.071,-0.742 -0.119,-1.236 0,0 -0.691,0.218 -1.816,0.439 -0.28,0.056 -1.434,0.196 -1.434,0.196 -0.02,0.413 -0.03,0.62 -0.05,1.033 0.378,0.053 0.568,0.082 0.947,0.143 0.079,0.441 0.157,1.03 0.167,1.547 0.022,1.15 0.034,1.722 0.057,2.871 C 5.426,-3.262 5.19,-1.551 4.017,-1.45 2.913,-1.354 2.219,-2.661 2.165,-4.585 2.147,-5.426 2.138,-5.849 2.12,-6.69 2.1,-7.672 2.175,-8.795 2.175,-8.795 2.608,-8.949 2.823,-9.025 3.258,-9.174 3.209,-9.639 3.186,-9.871 3.137,-10.333 c 0,0 -0.682,0.253 -1.793,0.541 -0.279,0.073 -1.539,0.325 -1.539,0.325 -0.021,0.384 -0.032,0.574 -0.052,0.958 0.423,0.009 0.635,0.016 1.059,0.036 0,0 0.131,0.895 0.167,1.332 0.036,1.701 0.053,2.552 0.088,4.254 0.008,0.386 -0.105,1.478 -0.105,1.478 -0.421,0.168 -0.633,0.253 -1.053,0.418 C -0.055,-0.595 -0.036,-0.397 0,0"
           style="fill:#424036;fill-opacity:1;fill-rule:nonzero;stroke:none"
           id="path2310"
           inkscape:connector-curvature="0" />
      </g>
      <g
         id="g2312"
         transform="matrix(1.25,0,0,-1.25,351.83475,622.9573)">
        <path
           d="m 0,0 c -0.067,-1.118 -0.1,-1.678 -0.167,-2.794 -0.327,0.042 -0.49,0.063 -0.816,0.106 0.004,0.321 0.006,0.481 0.01,0.801 0.002,0.157 0.001,0.537 -0.093,0.763 -0.205,0.485 -0.736,0.697 -1.143,0.716 -1.404,0.063 -1.941,-2.077 -1.974,-4.248 -0.032,-2.171 0.445,-4.226 1.864,-4.379 1.106,-0.12 1.997,0.616 1.997,0.616 0.155,-0.434 0.233,-0.653 0.388,-1.088 0,0 -0.939,-1.136 -2.417,-0.96 -2.173,0.258 -3.209,2.663 -3.155,5.943 0.054,3.279 1.167,5.45 3.313,5.374 C -1.366,0.82 -0.839,0.473 0,0"
           style="fill:#424036;fill-opacity:1;fill-rule:nonzero;stroke:none"
           id="path2314"
           inkscape:connector-curvature="0" />
      </g>
      <g
         id="g2316"
         transform="matrix(1.25,0,0,-1.25,354.86085,628.15505)">
        <path
           d="m 0,0 c 1.257,0.112 1.887,0.176 3.143,0.32 0,0 0.012,0.344 0.012,0.457 C 3.157,2.395 2.694,3.671 1.695,3.683 0.541,3.696 0.11,1.874 0,0 M 4.458,-0.455 C 4.361,-0.756 4.312,-0.904 4.216,-1.205 2.521,-1.207 1.673,-1.193 -0.021,-1.131 0.009,-3.17 0.607,-5.29 1.891,-5.324 c 1.212,-0.032 2.127,0.904 2.127,0.904 0.159,-0.42 0.24,-0.628 0.4,-1.047 0,0 -0.915,-1.382 -2.53,-1.334 -2.159,0.064 -3.267,2.508 -3.24,5.906 0.028,3.375 1.046,5.778 3.112,5.758 1.966,-0.019 2.696,-2.129 2.698,-5.318"
           style="fill:#424036;fill-opacity:1;fill-rule:nonzero;stroke:none"
           id="path2318"
           inkscape:connector-curvature="0" />
      </g>
      <g
         id="g2320"
         transform="matrix(1.25,0,0,-1.25,370.81655,635.93705)">
        <path
           d="m 0,0 c 0,0 -0.758,0.019 -1.897,-0.082 -0.285,-0.025 -1.922,-0.258 -1.922,-0.258 -0.032,0.449 -0.049,0.674 -0.08,1.124 0.563,0.177 0.845,0.268 1.408,0.453 0.025,0.294 0.113,1.333 0.109,1.715 -0.032,3.47 -0.047,5.204 -0.078,8.674 -0.635,-0.543 -0.953,-0.817 -1.591,-1.364 -0.154,0.376 -0.231,0.566 -0.386,0.943 0,0 1.629,2.1 1.903,2.463 0.152,0.202 0.646,1.281 0.646,1.281 0.264,-0.105 0.396,-0.158 0.659,-0.262 0,0 -0.055,-4.1 -0.043,-5.213 0.024,-2.308 0.039,-3.458 0.064,-5.766 0.01,-0.936 0.093,-2.045 0.125,-2.354 C -0.616,1.335 -0.384,1.326 0.082,1.314 0.049,0.789 0.033,0.525 0,0"
           style="fill:#424036;fill-opacity:1;fill-rule:nonzero;stroke:none"
           id="path2322"
           inkscape:connector-curvature="0" />
      </g>
      <g
         id="g2324"
         transform="matrix(1.25,0,0,-1.25,372.13245,623.32718)">
        <path
           d="m 0,0 c -0.036,2.715 1.29,4.677 3.021,4.701 2.123,0.03 3.311,-2.164 3.372,-5.258 0.086,-4.395 -1.539,-9.531 -5.699,-11.538 -0.086,0.442 -0.128,0.66 -0.214,1.104 3.736,2.376 4.609,6.759 4.542,10.306 C 4.984,1.328 4.357,3.527 3.016,3.49 1.884,3.458 1.332,1.846 1.359,0.072 1.384,-1.55 2.125,-2.94 3.179,-2.836 c 0.308,0.03 0.575,0.059 0.869,0.153 0.047,-0.39 0.07,-0.588 0.117,-0.978 C 3.874,-3.886 3.48,-4.057 3.073,-4.103 1.345,-4.297 0.036,-2.692 0,0"
           style="fill:#424036;fill-opacity:1;fill-rule:nonzero;stroke:none"
           id="path2326"
           inkscape:connector-curvature="0" />
      </g>
      <g
         id="g2328"
         transform="matrix(1.25,0,0,-1.25,387.74655,617.22118)">
        <path
           d="m 0,0 c 0.043,-0.484 0.065,-0.727 0.108,-1.209 0,0 -2.467,-0.562 -2.885,-0.585 -0.357,-0.019 -0.536,-0.028 -0.892,-0.047 0,0 -0.152,-4.211 -0.08,-4.258 0.048,-0.031 0.705,0.264 1.136,0.321 1.878,0.249 3.118,-0.703 3.162,-2.927 0.058,-2.958 -2.065,-5.411 -4.973,-6.649 -0.109,0.393 -0.166,0.592 -0.275,0.99 2.238,1.028 3.989,2.793 3.94,5.177 -0.032,1.572 -0.767,2.289 -2.075,2.085 -0.333,-0.051 -0.751,-0.17 -1.333,-0.456 -0.21,0.136 -0.314,0.205 -0.524,0.344 0.041,2.634 0.062,3.944 0.104,6.556 0.103,0.146 0.154,0.219 0.257,0.364 0.379,0.008 0.568,0.012 0.947,0.022 C -2.028,-0.162 -1.354,-0.105 0,0"
           style="fill:#424036;fill-opacity:1;fill-rule:nonzero;stroke:none"
           id="path2330"
           inkscape:connector-curvature="0" />
      </g>
      <g
         id="g2332"
         transform="matrix(1.25,0,0,-1.25,393.88785,618.23805)">
        <path
           d="m 0,0 c -1.638,-0.101 -1.918,-2.595 -1.882,-4.741 0.036,-2.146 0.397,-4.542 1.99,-3.972 1.593,0.569 1.881,2.887 1.87,4.773 C 1.966,-2.055 1.637,0.101 0,0 m -0.013,0.947 c 2.406,0.073 3.336,-2.069 3.336,-4.579 0,-2.511 -0.874,-5.116 -3.202,-6.026 -2.329,-0.91 -3.308,1.529 -3.366,4.663 -0.059,3.133 0.826,5.87 3.232,5.942"
           style="fill:#424036;fill-opacity:1;fill-rule:nonzero;stroke:none"
           id="path2334"
           inkscape:connector-curvature="0" />
      </g>
      <path
         d="m 471.92359,524.43505 -224.99,0 0,5.815 224.99,0 0,-5.815 z"
         style="fill:#be1e30;fill-opacity:1;fill-rule:nonzero;stroke:none"
         id="path2336"
         inkscape:connector-curvature="0" />
      <path
         d="m 440.71609,607.6538 -161.4325,0 0,-2.045 161.4325,0 0,2.045 z"
         style="fill:#c59d5f;fill-opacity:1;fill-rule:nonzero;stroke:none"
         id="path2338"
         inkscape:connector-curvature="0" />
      <g
         id="g2340"
         transform="matrix(1.25,0,0,-1.25,346.15725,509.8763)">
        <path
           d="m 0,0 c -0.143,-2.22 -0.352,-2.773 -0.352,-4.832 0,-1.39 0.048,-1.576 11.422,-1.576 l 0.004,0 0.004,0 c 11.374,0 11.422,0.186 11.422,1.576 0,2.059 -0.208,2.612 -0.352,4.832 2.29,0.235 4.219,1.232 5.797,2.86 1.434,1.476 2.093,3.56 1.948,5.623 -0.133,1.864 -1.166,3.975 -2.541,5.259 -2.186,2.043 -5.464,2.731 -8.343,2.087 -2.156,3.042 -5.258,3.812 -7.931,3.812 l -0.003,0 -0.004,0 c -2.674,0 -5.775,-0.77 -7.93,-3.812 -2.88,0.644 -6.159,-0.044 -8.344,-2.087 C -6.578,12.458 -7.611,10.347 -7.743,8.483 -7.888,6.42 -7.23,4.336 -5.796,2.86 -4.217,1.232 -2.29,0.235 0,0"
           style="fill:#c59d5f;fill-opacity:1;fill-rule:nonzero;stroke:none"
           id="path2342"
           inkscape:connector-curvature="0" />
      </g>
      <text
         transform="scale(1.0455281,0.95645444)"
         sodipodi:linespacing="115%"
         id="text6973"
         y="584.04535"
         x="288.79807"
         style="font-style:normal;font-variant:normal;font-weight:normal;font-stretch:normal;font-size:29.78250122px;line-height:114.99999762%;font-family:'Bodoni MT';-inkscape-font-specification:'Bodoni MT, Normal';text-align:start;letter-spacing:0px;word-spacing:0px;writing-mode:lr-tb;text-anchor:start;fill:#424036;fill-opacity:1;stroke:none;stroke-width:1px;stroke-linecap:butt;stroke-linejoin:miter;stroke-opacity:1"
         xml:space="preserve"><tspan
           y="584.04535"
           x="288.79807"
           id="tspan6975"
           sodipodi:role="line">Bouchon </tspan><tspan
           id="tspan6977"
           y="618.29523"
           x="288.79807"
           sodipodi:role="line">Lyonnais</tspan></text>
    </g>
    <flowRoot
       xml:space="preserve"
       id="flowRoot6979"
       style="fill:black;stroke:none;stroke-opacity:1;stroke-width:1px;stroke-linejoin:miter;stroke-linecap:butt;fill-opacity:1;font-family:Sans;font-style:normal;font-weight:normal;font-size:40px;line-height:115%;letter-spacing:0px;word-spacing:0px"><flowRegion
         id="flowRegion6981"><rect
           id="rect6983"
           width="238.37439"
           height="112.17619"
           x="71.329422"
           y="368.33133" /></flowRegion><flowPara
         id="flowPara6985"></flowPara></flowRoot>  </g>
</svg>
